<?xml version="1.0" encoding="UTF-8" standalone="no" ?>
<!DOCTYPE svg PUBLIC "-//W3C//DTD SVG 1.1//EN" "http://www.w3.org/Graphics/SVG/1.1/DTD/svg11.dtd">
<svg xmlns="http://www.w3.org/2000/svg" xmlns:xlink="http://www.w3.org/1999/xlink" version="1.1" width="1024" height="512" viewBox="0 0 1024 512" xml:space="preserve">
<desc>Created with Fabric.js 4.2.0</desc>
<defs>
</defs>
<g transform="matrix(0 0 0 0 0 0)" id="1800f827-8a1a-4c4f-a0d6-193d7081b155"  >
</g>
<g transform="matrix(1 0 0 1 512 256)" id="ea6f3b90-1f90-462b-89e8-797d3ed0c502"  >
<rect style="stroke: none; stroke-width: 1; stroke-dasharray: none; stroke-linecap: butt; stroke-dashoffset: 0; stroke-linejoin: miter; stroke-miterlimit: 4; fill: rgb(255,255,255); fill-opacity: 0; fill-rule: nonzero; opacity: 1;" vector-effect="non-scaling-stroke"  x="-512" y="-256" rx="0" ry="0" width="1024" height="512" />
</g>
<g transform="matrix(5.95 0 0 5.95 511.2 255.44)"  >
<g style="" vector-effect="non-scaling-stroke"   >
		<g transform="matrix(2 0 0 2 72.2 33)"  >
<polygon style="stroke: none; stroke-width: 1; stroke-dasharray: none; stroke-linecap: butt; stroke-dashoffset: 0; stroke-linejoin: miter; stroke-miterlimit: 4; fill: rgb(2,62,78); fill-rule: nonzero; opacity: 1;" vector-effect="non-scaling-stroke"  points="0,0 0,0 0,0 " />
</g>
		<g transform="matrix(2 0 0 2 -28.9 -32)"  >
<path style="stroke: none; stroke-width: 1; stroke-dasharray: none; stroke-linecap: butt; stroke-dashoffset: 0; stroke-linejoin: miter; stroke-miterlimit: 4; fill: rgb(2,62,78); fill-rule: nonzero; opacity: 1;" vector-effect="non-scaling-stroke"  transform=" translate(-136.65, -77)" d="M 140.1 79.6 C 140.29999999999998 80.1 140.4 80.39999999999999 140.6 80.39999999999999 C 140.79999999999998 80.39999999999999 140.9 80.3 140.9 80.1 C 140.9 79.89999999999999 140.9 79.8 140.70000000000002 79.3 L 138.8 73.6 C 136.60000000000002 73.6 135.3 73.6 132.4 73.69999999999999 L 132.4 74.39999999999999 C 136.1 74.6 138.5 75.4 140.1 79.6 z" stroke-linecap="round" />
</g>
		<g transform="matrix(2 0 0 2 -34.1 -19.2)"  >
<path style="stroke: none; stroke-width: 1; stroke-dasharray: none; stroke-linecap: butt; stroke-dashoffset: 0; stroke-linejoin: miter; stroke-miterlimit: 4; fill: rgb(2,62,78); fill-rule: nonzero; opacity: 1;" vector-effect="non-scaling-stroke"  transform=" translate(-134.05, -83.4)" d="M 135.5 87.8 C 135.5 88.2 135.6 88.39999999999999 135.8 88.39999999999999 C 136.10000000000002 88.39999999999999 136.10000000000002 88.19999999999999 136.10000000000002 87.8 L 136.10000000000002 79 C 136.10000000000002 78.6 136.10000000000002 78.4 135.8 78.4 C 135.60000000000002 78.4 135.5 78.60000000000001 135.5 79 C 135.5 81.6 134.1 82.6 132 82.9 L 132 83.7 C 134.1 84 135.5 85.1 135.5 87.8 z" stroke-linecap="round" />
</g>
		<g transform="matrix(2 0 0 2 -44.6 -18.3)"  >
<path style="stroke: none; stroke-width: 1; stroke-dasharray: none; stroke-linecap: butt; stroke-dashoffset: 0; stroke-linejoin: miter; stroke-miterlimit: 4; fill: rgb(2,62,78); fill-rule: nonzero; opacity: 1;" vector-effect="non-scaling-stroke"  transform=" translate(-128.8, -83.85)" d="M 132.8 94.1 C 133.10000000000002 94.1 133.20000000000002 93.89999999999999 133.20000000000002 93.69999999999999 C 133.20000000000002 92.79999999999998 130.60000000000002 93.99999999999999 130.60000000000002 91.39999999999999 L 130.60000000000002 85.19999999999999 L 130.60000000000002 85.19999999999999 L 130.60000000000002 80.39999999999999 L 130.60000000000002 80.39999999999999 L 130.60000000000002 75.8 L 130.60000000000002 75.8 L 130.60000000000002 73.6 C 130.20000000000002 73.6 129.70000000000002 73.6 129.20000000000002 73.6 C 127.20000000000002 75.1 125.90000000000002 75.5 124.80000000000001 75.69999999999999 C 124.50000000000001 75.69999999999999 124.4 75.89999999999999 124.4 76.1 C 124.4 77 127.7 75.1 127.7 77.19999999999999 L 127.7 91.29999999999998 C 127.7 93.89999999999998 125.10000000000001 92.69999999999999 125.10000000000001 93.59999999999998 C 125.10000000000001 93.79999999999998 125.2 93.99999999999999 125.50000000000001 93.99999999999999 C 126.20000000000002 93.99999999999999 126.90000000000002 93.89999999999999 129.20000000000002 93.89999999999999 C 131.5 93.89999999999999 132.1 94.1 132.8 94.1 z" stroke-linecap="round" />
</g>
		<g transform="matrix(2 0 0 2 -14.5 -33.1)"  >
<path style="stroke: none; stroke-width: 1; stroke-dasharray: none; stroke-linecap: butt; stroke-dashoffset: 0; stroke-linejoin: miter; stroke-miterlimit: 4; fill: rgb(2,62,78); fill-rule: nonzero; opacity: 1;" vector-effect="non-scaling-stroke"  transform=" translate(-143.85, -76.45)" d="M 143.8 78.1 C 144.9 78.1 145.5 77.39999999999999 145.5 76.39999999999999 C 145.5 75.39999999999999 145 74.8 143.8 74.8 C 142.70000000000002 74.8 142.20000000000002 75.5 142.20000000000002 76.39999999999999 C 142.2 77.4 142.7 78.1 143.8 78.1 z" stroke-linecap="round" />
</g>
		<g transform="matrix(2 0 0 2 -14 -11.8)"  >
<path style="stroke: none; stroke-width: 1; stroke-dasharray: none; stroke-linecap: butt; stroke-dashoffset: 0; stroke-linejoin: miter; stroke-miterlimit: 4; fill: rgb(2,62,78); fill-rule: nonzero; opacity: 1;" vector-effect="non-scaling-stroke"  transform=" translate(-144.1, -87.1)" d="M 145.4 80.1 C 141.20000000000002 81.69999999999999 140.5 81.19999999999999 140.5 81.69999999999999 C 140.5 82.39999999999999 142.7 81.6 142.7 83.6 L 142.7 91.89999999999999 C 142.7 93.8 140.5 92.89999999999999 140.5 93.69999999999999 C 140.5 93.99999999999999 140.6 94.1 141 94.1 C 141.8 94.1 142.4 94 144.1 94 C 145.79999999999998 94 146.4 94.1 147.2 94.1 C 147.5 94.1 147.7 94 147.7 93.69999999999999 C 147.7 92.89999999999999 145.5 93.79999999999998 145.5 91.89999999999999 L 145.5 80.1 z" stroke-linecap="round" />
</g>
		<g transform="matrix(2 0 0 2 10.9 -21.9)"  >
<path style="stroke: none; stroke-width: 1; stroke-dasharray: none; stroke-linecap: butt; stroke-dashoffset: 0; stroke-linejoin: miter; stroke-miterlimit: 4; fill: rgb(2,62,78); fill-rule: nonzero; opacity: 1;" vector-effect="non-scaling-stroke"  transform=" translate(-156.55, -82.05)" d="M 155.7 82.4 C 156.79999999999998 82.4 156.7 83.10000000000001 157.7 83.10000000000001 C 158.5 83.10000000000001 159.2 82.60000000000001 159.2 81.7 C 159.2 80.7 158.5 80.10000000000001 157.29999999999998 80.10000000000001 C 156.2 80.10000000000001 154.99999999999997 80.60000000000001 153.89999999999998 82.7 L 153.89999999999998 84 C 154.4 83 155.1 82.4 155.7 82.4 z" stroke-linecap="round" />
</g>
		<g transform="matrix(2 0 0 2 1.79 -11.8)"  >
<path style="stroke: none; stroke-width: 1; stroke-dasharray: none; stroke-linecap: butt; stroke-dashoffset: 0; stroke-linejoin: miter; stroke-miterlimit: 4; fill: rgb(2,62,78); fill-rule: nonzero; opacity: 1;" vector-effect="non-scaling-stroke"  transform=" translate(-151.99, -87.1)" d="M 150.6 83.7 L 150.6 91.9 C 150.6 93.80000000000001 148.4 92.9 148.4 93.7 C 148.4 94 148.5 94.10000000000001 148.9 94.10000000000001 C 149.70000000000002 94.10000000000001 150.3 94.00000000000001 152 94.00000000000001 C 153.7 94.00000000000001 154.3 94.10000000000001 155.1 94.10000000000001 C 155.4 94.10000000000001 155.6 94.00000000000001 155.6 93.7 C 155.6 92.9 153.4 93.8 153.4 91.9 L 153.4 87.7 C 153.4 87.60000000000001 153.4 87.60000000000001 153.4 87.60000000000001 L 153.4 84 L 153.4 84 L 153.4 80.1 C 150.1 81.5 148.4 81.1 148.4 81.69999999999999 C 148.2 82.4 150.6 81.6 150.6 83.7 z" stroke-linecap="round" />
</g>
		<g transform="matrix(2 0 0 2 27.3 -11.9)"  >
<path style="stroke: none; stroke-width: 1; stroke-dasharray: none; stroke-linecap: butt; stroke-dashoffset: 0; stroke-linejoin: miter; stroke-miterlimit: 4; fill: rgb(2,62,78); fill-rule: nonzero; opacity: 1;" vector-effect="non-scaling-stroke"  transform=" translate(-164.75, -87.05)" d="M 169.8 90.1 C 169.8 85.89999999999999 162 85.8 162 82.8 C 162 81.3 162.9 80.7 164.1 80.6 L 164.1 80.1 C 161.29999999999998 80.3 159.7 82 159.7 83.89999999999999 C 159.7 88.39999999999999 167.5 87.99999999999999 167.5 90.99999999999999 C 167.5 92.19999999999999 166.8 93.39999999999999 165.2 93.49999999999999 L 165.2 93.99999999999999 C 168.3 93.8 169.8 92.1 169.8 90.1 z" stroke-linecap="round" />
</g>
		<g transform="matrix(2 0 0 2 21.4 -3.2)"  >
<path style="stroke: none; stroke-width: 1; stroke-dasharray: none; stroke-linecap: butt; stroke-dashoffset: 0; stroke-linejoin: miter; stroke-miterlimit: 4; fill: rgb(2,62,78); fill-rule: nonzero; opacity: 1;" vector-effect="non-scaling-stroke"  transform=" translate(-161.8, -91.4)" d="M 164.1 93.6 C 162.4 93.19999999999999 161 91.69999999999999 160.29999999999998 89.5 C 160.1 88.7 159.89999999999998 88.6 159.79999999999998 88.6 C 159.6 88.6 159.49999999999997 88.8 159.49999999999997 89.1 L 159.49999999999997 93.5 C 161.09999999999997 94 162.49999999999997 94.2 164.09999999999997 94.2 L 164.09999999999997 93.6 z" stroke-linecap="round" />
</g>
		<g transform="matrix(2 0 0 2 31.9 -20.7)"  >
<path style="stroke: none; stroke-width: 1; stroke-dasharray: none; stroke-linecap: butt; stroke-dashoffset: 0; stroke-linejoin: miter; stroke-miterlimit: 4; fill: rgb(2,62,78); fill-rule: nonzero; opacity: 1;" vector-effect="non-scaling-stroke"  transform=" translate(-167.05, -82.65)" d="M 168.3 84.4 C 168.5 84.9 168.5 85.2 168.70000000000002 85.2 C 168.9 85.2 168.9 85.10000000000001 168.9 84.9 L 168.9 81 C 168 80.6 166.5 80.2 165.20000000000002 80.1 L 165.20000000000002 80.8 C 166.9 81.3 167.7 82.8 168.3 84.4 z" stroke-linecap="round" />
</g>
		<g transform="matrix(2 0 0 2 53.1 -23.9)"  >
<polygon style="stroke: none; stroke-width: 1; stroke-dasharray: none; stroke-linecap: butt; stroke-dashoffset: 0; stroke-linejoin: miter; stroke-miterlimit: 4; fill: rgb(2,62,78); fill-rule: nonzero; opacity: 1;" vector-effect="non-scaling-stroke"  points="1.15,0.75 1.65,-0.75 -1.65,-0.75 -1.65,0.75 " />
</g>
		<g transform="matrix(2 0 0 2 48.6 -15.7)"  >
<path style="stroke: none; stroke-width: 1; stroke-dasharray: none; stroke-linecap: butt; stroke-dashoffset: 0; stroke-linejoin: miter; stroke-miterlimit: 4; fill: rgb(2,62,78); fill-rule: nonzero; opacity: 1;" vector-effect="non-scaling-stroke"  transform=" translate(-175.4, -85.15)" d="M 180.3 91.5 C 180.3 91.3 180.20000000000002 91.3 180.10000000000002 91.3 C 179.70000000000002 91.3 179.3 92.8 177.60000000000002 92.8 C 176.20000000000002 92.8 175.3 92.2 175.3 90.2 L 175.3 81.8 L 175.3 81.8 L 175.3 80.39999999999999 L 175.3 80.39999999999999 L 175.3 75.99999999999999 L 175.20000000000002 75.99999999999999 C 174.4 78.39999999999999 172.8 80.49999999999999 170.50000000000003 81.79999999999998 L 170.50000000000003 81.89999999999998 L 172.50000000000003 81.89999999999998 L 172.50000000000003 90.29999999999998 C 172.50000000000003 92.89999999999998 173.70000000000002 94.29999999999998 176.00000000000003 94.29999999999998 C 179.1 94.2 180.3 91.8 180.3 91.5 z" stroke-linecap="round" />
</g>
		<g transform="matrix(2 0 0 2 -75.5 29.5)"  >
<path style="stroke: none; stroke-width: 1; stroke-dasharray: none; stroke-linecap: butt; stroke-dashoffset: 0; stroke-linejoin: miter; stroke-miterlimit: 4; fill: rgb(2,62,78); fill-rule: nonzero; opacity: 1;" vector-effect="non-scaling-stroke"  transform=" translate(-113.35, -107.75)" d="M 111.3 105.4 C 110.89999999999999 103.7 111 103.10000000000001 110.5 103.10000000000001 C 110.1 103.10000000000001 110.1 103.4 110.1 103.9 L 110.1 111.60000000000001 C 110.1 112.00000000000001 110.3 112.30000000000001 110.5 112.30000000000001 C 111.2 112.30000000000001 111 111.20000000000002 111.9 111.20000000000002 C 112.5 111.20000000000002 114.2 112.30000000000001 116.60000000000001 112.40000000000002 L 116.60000000000001 111.70000000000002 C 114.5 111.5 112.3 110 111.3 105.4 z" stroke-linecap="round" />
</g>
		<g transform="matrix(2 0 0 2 -60.9 4.2)"  >
<path style="stroke: none; stroke-width: 1; stroke-dasharray: none; stroke-linecap: butt; stroke-dashoffset: 0; stroke-linejoin: miter; stroke-miterlimit: 4; fill: rgb(2,62,78); fill-rule: nonzero; opacity: 1;" vector-effect="non-scaling-stroke"  transform=" translate(-120.65, -95.1)" d="M 122.2 97.4 C 122.60000000000001 98.7 122.60000000000001 98.9 123 98.9 C 123.3 98.9 123.4 98.60000000000001 123.4 98.4 C 123.4 98.10000000000001 123.4 97.80000000000001 122.9 91.80000000000001 C 122.9 91.50000000000001 122.80000000000001 91.30000000000001 122.5 91.30000000000001 C 121.8 91.30000000000001 122.3 92.30000000000001 121.4 92.30000000000001 C 120.9 92.30000000000001 119.80000000000001 91.60000000000001 117.9 91.30000000000001 L 117.9 91.9 C 119.8 92.4 121.2 94.2 122.2 97.4 z" stroke-linecap="round" />
</g>
		<g transform="matrix(2 0 0 2 -67.6 17.4)"  >
<path style="stroke: none; stroke-width: 1; stroke-dasharray: none; stroke-linecap: butt; stroke-dashoffset: 0; stroke-linejoin: miter; stroke-miterlimit: 4; fill: rgb(2,62,78); fill-rule: nonzero; opacity: 1;" vector-effect="non-scaling-stroke"  transform=" translate(-117.3, -101.7)" d="M 112.8 95.1 C 112.8 93.19999999999999 114.3 91.6 116.3 91.6 C 116.39999999999999 91.6 116.5 91.6 116.6 91.6 L 116.6 91.1 C 116.5 91.1 116.3 91.1 116.19999999999999 91.1 C 113.19999999999999 91.1 110.29999999999998 93.19999999999999 110.29999999999998 96.3 C 110.29999999999998 103.89999999999999 121.79999999999998 100.5 121.79999999999998 107.5 C 121.79999999999998 109.9 120.09999999999998 111.4 117.79999999999998 111.6 L 117.79999999999998 112.3 C 120.49999999999999 112.1 124.29999999999998 110.2 124.29999999999998 106 C 124.3 98.6 112.8 100.7 112.8 95.1 z" stroke-linecap="round" />
</g>
		<g transform="matrix(2 0 0 2 -38.3 24.1)"  >
<path style="stroke: none; stroke-width: 1; stroke-dasharray: none; stroke-linecap: butt; stroke-dashoffset: 0; stroke-linejoin: miter; stroke-miterlimit: 4; fill: rgb(2,62,78); fill-rule: nonzero; opacity: 1;" vector-effect="non-scaling-stroke"  transform=" translate(-131.95, -105.05)" d="M 138 107.6 C 137.6 107.6 137.6 108.39999999999999 136.5 109.19999999999999 C 135.6 109.79999999999998 134.7 110.1 133.4 110.1 C 129.8 110.1 128.4 107.6 128.3 104.69999999999999 L 128.3 104.69999999999999 L 128.20000000000002 103.69999999999999 C 128.3 100.89999999999999 130.20000000000002 98.6 132.4 98.6 C 134.4 98.6 135.5 100 135.5 103.69999999999999 L 129.3 103.69999999999999 L 129.3 104.39999999999999 L 138.20000000000002 104.39999999999999 C 138.20000000000002 101.3 136.3 97.99999999999999 132.4 97.99999999999999 C 128.3 97.99999999999999 125.60000000000001 101.59999999999998 125.60000000000001 105.29999999999998 C 125.60000000000001 109.29999999999998 128.70000000000002 112.09999999999998 132.3 112.09999999999998 C 136.9 112.09999999999998 138.3 108.39999999999998 138.3 107.89999999999998 C 138.2 107.7 138.1 107.6 138 107.6 z" stroke-linecap="round" />
</g>
		<g transform="matrix(2 0 0 2 -16.9 24)"  >
<path style="stroke: none; stroke-width: 1; stroke-dasharray: none; stroke-linecap: butt; stroke-dashoffset: 0; stroke-linejoin: miter; stroke-miterlimit: 4; fill: rgb(2,62,78); fill-rule: nonzero; opacity: 1;" vector-effect="non-scaling-stroke"  transform=" translate(-142.65, -105)" d="M 144 101.9 L 144 98 C 140.7 99.4 139 99 139 99.6 C 139 100.39999999999999 141.3 99.5 141.3 101.6 L 141.3 109.8 C 141.3 111.7 139.10000000000002 110.8 139.10000000000002 111.6 C 139.10000000000002 111.89999999999999 139.20000000000002 112 139.60000000000002 112 C 140.40000000000003 112 141.00000000000003 111.9 142.70000000000002 111.9 C 144.4 111.9 145.00000000000003 112 145.8 112 C 146.10000000000002 112 146.3 111.9 146.3 111.6 C 146.3 110.8 144.10000000000002 111.69999999999999 144.10000000000002 109.8 L 144.10000000000002 105.6 C 144.10000000000002 105.39999999999999 144.10000000000002 105.3 144.10000000000002 105.19999999999999 L 144 101.9 L 144 101.9 z" stroke-linecap="round" />
</g>
		<g transform="matrix(2 0 0 2 -7.8 14)"  >
<path style="stroke: none; stroke-width: 1; stroke-dasharray: none; stroke-linecap: butt; stroke-dashoffset: 0; stroke-linejoin: miter; stroke-miterlimit: 4; fill: rgb(2,62,78); fill-rule: nonzero; opacity: 1;" vector-effect="non-scaling-stroke"  transform=" translate(-147.2, -100)" d="M 149 98.5 C 149 98.4 149.1 98.3 149.1 98.3 C 148.79999999999998 98.2 148.5 98.1 148 98.1 C 146.9 98.1 145.7 98.6 144.6 100.69999999999999 L 144.6 101.89999999999999 C 145.1 100.89999999999999 145.7 100.39999999999999 146.29999999999998 100.39999999999999 C 147.39999999999998 100.39999999999999 147.29999999999998 101.1 148.29999999999998 101.1 C 149.1 101.1 149.79999999999998 100.6 149.79999999999998 99.69999999999999 C 149.79999999999998 99.39999999999999 149.79999999999998 99.19999999999999 149.7 98.99999999999999 C 149.4 98.8 149 98.8 149 98.5 z" stroke-linecap="round" />
</g>
		<g transform="matrix(2 0 0 2 4.6 24.5)"  >
<path style="stroke: none; stroke-width: 1; stroke-dasharray: none; stroke-linecap: butt; stroke-dashoffset: 0; stroke-linejoin: miter; stroke-miterlimit: 4; fill: rgb(2,62,78); fill-rule: nonzero; opacity: 1;" vector-effect="non-scaling-stroke"  transform=" translate(-153.4, -105.25)" d="M 157.1 108.9 L 153.79999999999998 100.5 C 153.7 100.3 153.6 100 153.6 99.7 C 153.6 98.60000000000001 155.29999999999998 99 155.29999999999998 98.5 C 155.29999999999998 98.2 155.1 98.2 154.7 98.2 C 154.2 98.2 152.79999999999998 98.3 152 98.3 C 151.1 98.3 149.9 98.2 149.4 98.2 C 149.3 98.2 149.20000000000002 98.2 149.20000000000002 98.2 C 149.50000000000003 98.4 149.70000000000002 98.60000000000001 149.9 98.9 C 150.20000000000002 99 150.6 99.30000000000001 150.9 100 L 155.70000000000002 111.9 C 155.8 112.10000000000001 155.9 112.30000000000001 156.10000000000002 112.30000000000001 C 156.3 112.30000000000001 156.40000000000003 112.10000000000001 156.50000000000003 111.9 L 157.60000000000002 109.7 L 157.1 108.9 L 157.1 108.9 z" stroke-linecap="round" />
</g>
		<g transform="matrix(2 0 0 2 19.4 20.5)"  >
<path style="stroke: none; stroke-width: 1; stroke-dasharray: none; stroke-linecap: butt; stroke-dashoffset: 0; stroke-linejoin: miter; stroke-miterlimit: 4; fill: rgb(2,62,78); fill-rule: nonzero; opacity: 1;" vector-effect="non-scaling-stroke"  transform=" translate(-160.8, -103.25)" d="M 163.9 98.5 C 163.9 98.3 163.70000000000002 98.2 163.3 98.2 C 162.8 98.2 162.10000000000002 98.3 161.3 98.3 C 160.4 98.3 159.60000000000002 98.2 159.20000000000002 98.2 C 158.70000000000002 98.2 158.50000000000003 98.3 158.50000000000003 98.5 C 158.50000000000003 99.1 160.20000000000002 98.3 160.20000000000002 100.6 C 160.20000000000002 101.6 160.00000000000003 102.6 158.8 105.1 L 157.70000000000002 107.39999999999999 L 158.00000000000003 108.3 L 161.60000000000002 100.8 C 162.6 98.8 163.9 98.9 163.9 98.5 z" stroke-linecap="round" />
</g>
		<g transform="matrix(2 0 0 2 -3.4 11.3)"  >
<path style="stroke: none; stroke-width: 1; stroke-dasharray: none; stroke-linecap: butt; stroke-dashoffset: 0; stroke-linejoin: miter; stroke-miterlimit: 4; fill: rgb(2,62,78); fill-rule: nonzero; opacity: 1;" vector-effect="non-scaling-stroke"  transform=" translate(-149.4, -98.65)" d="M 149.1 98.3 C 149 98.3 149 98.39999999999999 149 98.5 C 149 98.9 149.4 98.8 149.8 99 C 149.7 98.6 149.4 98.4 149.1 98.3 z" stroke-linecap="round" />
</g>
		<g transform="matrix(2 0 0 2 36.3 24.3)"  >
<path style="stroke: none; stroke-width: 1; stroke-dasharray: none; stroke-linecap: butt; stroke-dashoffset: 0; stroke-linejoin: miter; stroke-miterlimit: 4; fill: rgb(2,62,78); fill-rule: nonzero; opacity: 1;" vector-effect="non-scaling-stroke"  transform=" translate(-169.25, -105.15)" d="M 175.1 107.6 C 174.7 107.6 174.7 108.39999999999999 173.6 109.19999999999999 C 172.7 109.79999999999998 171.79999999999998 110.1 170.5 110.1 C 166.7 110.1 165.4 107.5 165.4 104.5 L 165.4 104.5 L 165.4 103.8 L 165.4 103.8 C 165.5 101 167.4 98.7 169.6 98.7 C 171.6 98.7 172.79999999999998 100.10000000000001 172.79999999999998 103.8 L 166.6 103.8 L 166.6 104.5 L 175.5 104.5 C 175.5 101.4 173.6 98.1 169.7 98.1 C 165.6 98.1 162.89999999999998 101.69999999999999 162.89999999999998 105.39999999999999 C 162.89999999999998 109.39999999999999 165.99999999999997 112.19999999999999 169.59999999999997 112.19999999999999 C 174.19999999999996 112.19999999999999 175.59999999999997 108.49999999999999 175.59999999999997 107.99999999999999 C 175.3 107.7 175.2 107.6 175.1 107.6 z" stroke-linecap="round" />
</g>
		<g transform="matrix(2 0 0 2 66.7 16.1)"  >
<path style="stroke: none; stroke-width: 1; stroke-dasharray: none; stroke-linecap: butt; stroke-dashoffset: 0; stroke-linejoin: miter; stroke-miterlimit: 4; fill: rgb(2,62,78); fill-rule: nonzero; opacity: 1;" vector-effect="non-scaling-stroke"  transform=" translate(-184.45, -101.05)" d="M 189.7 108.3 L 189.7 90 C 185.5 91.6 184.6 91.1 184.6 91.6 C 184.6 92.3 187 91.39999999999999 187 93.5 L 187 98.4 C 186.5 98.30000000000001 185.6 98 184.1 98 C 180.1 98 176.79999999999998 101.1 176.79999999999998 105.9 C 176.79999999999998 109.2 179.1 112.10000000000001 182.39999999999998 112.10000000000001 C 183.89999999999998 112.10000000000001 185.09999999999997 111.4 186.09999999999997 110.60000000000001 L 186.09999999999997 109.80000000000001 C 185.49999999999997 110.20000000000002 184.59999999999997 110.60000000000001 183.69999999999996 110.60000000000001 C 180.69999999999996 110.60000000000001 179.49999999999997 107.50000000000001 179.49999999999997 105.10000000000001 C 179.49999999999997 101.30000000000001 181.29999999999998 98.60000000000001 183.99999999999997 98.60000000000001 C 185.69999999999996 98.60000000000001 187.09999999999997 99.60000000000001 187.09999999999997 101.7 L 187.09999999999997 104 L 187.29999999999995 109.4 L 187.29999999999995 109.4 L 187.29999999999995 109.4 L 187.29999999999995 109.5 L 187.29999999999995 109.5 L 187.29999999999995 112.1 C 191.29999999999995 110.3 192.09999999999997 110.8 192.09999999999997 110.3 C 192 109.7 189.7 110.5 189.7 108.3 z" stroke-linecap="round" />
</g>
		<g transform="matrix(2 0 0 2 72.2 33.1)"  >
<polygon style="stroke: none; stroke-width: 1; stroke-dasharray: none; stroke-linecap: butt; stroke-dashoffset: 0; stroke-linejoin: miter; stroke-miterlimit: 4; fill: rgb(2,62,78); fill-rule: nonzero; opacity: 1;" vector-effect="non-scaling-stroke"  points="0,-0.05 0,0.05 0,0.05 " />
</g>
</g>
</g>
</svg>